<svg version="1.1" id="Layer_1" xmlns="http://www.w3.org/2000/svg" xmlns:xlink="http://www.w3.org/1999/xlink" x="0px" y="0px"
	 width="100%" viewBox="0 0 402 330" enable-background="new 0 0 402 330" xml:space="preserve">
<path fill="#ffff" opacity="1.000000" stroke="none" 
	d="
M211.000000,331.000000 
	C140.690506,331.000000 70.881027,331.000000 1.035769,331.000000 
	C1.035769,221.061417 1.035769,111.122826 1.035769,1.092113 
	C134.892776,1.092113 268.785645,1.092113 402.839233,1.092113 
	C402.839233,110.999817 402.839233,220.999878 402.839233,331.000000 
	C339.122894,331.000000 275.311462,331.000000 211.000000,331.000000 
M335.213501,292.523163 
	C336.092468,288.686737 337.690613,284.858032 337.731934,281.012604 
	C337.973633,258.528961 337.850891,236.041443 337.851135,213.555222 
	C337.851166,211.971970 337.851135,210.388718 337.851135,207.862808 
	C341.069763,210.139908 343.426727,211.858093 345.834808,213.501389 
	C352.558441,218.089661 360.738678,216.782745 365.248688,210.431473 
	C369.664734,204.212524 368.445770,196.145416 361.991089,191.430389 
	C335.519928,172.093735 308.991364,152.835342 282.423309,133.631973 
	C276.955933,129.680161 271.216736,129.792358 265.735321,133.765915 
	C239.329208,152.908066 212.939148,172.072617 186.606903,191.316116 
	C179.941422,196.187256 178.673447,204.405182 183.279861,210.708145 
	C187.780701,216.866714 196.074631,217.992065 202.799942,213.330139 
	C205.132324,211.713364 207.420517,210.032852 210.509552,207.822983 
	C210.509552,210.759064 210.509460,212.406128 210.509552,214.053192 
	C210.510788,236.539413 210.463440,259.025787 210.534180,281.511810 
	C210.568634,292.463318 217.375565,301.400909 226.999588,302.061615 
	C236.227295,302.695068 245.532562,302.198395 255.224564,302.198395 
	C255.224564,300.314941 255.224564,298.690125 255.224564,297.065308 
	C255.224655,278.076935 255.216858,259.088562 255.228378,240.100189 
	C255.233704,231.336777 258.400330,228.232895 267.311829,228.211029 
	C272.142181,228.199173 276.972687,228.186798 281.802917,228.214722 
	C289.835236,228.261169 293.060547,231.398926 293.074280,239.323853 
	C293.107788,258.645294 293.086334,277.966827 293.087036,297.288330 
	C293.087097,298.888702 293.087036,300.489075 293.087036,302.406311 
	C301.548126,302.406311 309.365662,302.296722 317.178650,302.437469 
	C324.825623,302.575226 330.689911,299.560211 335.213501,292.523163 
M212.685272,159.990616 
	C213.626297,159.159042 214.567322,158.327484 215.584473,157.428650 
	C214.995438,156.805435 214.719330,156.367249 214.324310,156.116272 
	C191.162643,141.401749 165.871552,135.784973 138.890671,140.276627 
	C89.954681,148.423248 54.415230,185.908112 48.274590,234.839920 
	C47.114792,244.081802 49.734348,247.064774 59.069035,247.065948 
	C104.539291,247.071686 150.009552,247.068497 195.479813,247.068466 
	C196.965225,247.068466 198.450623,247.068466 200.237488,247.068466 
	C200.237488,239.894958 200.237488,233.004532 200.237488,226.028778 
	C199.121185,226.028778 198.301376,225.992798 197.485489,226.034195 
	C185.181213,226.658401 175.869049,221.086227 172.114517,210.841278 
	C168.246292,200.286087 171.796326,189.722321 181.783264,182.412949 
	C191.853378,175.042709 201.983353,167.754288 212.685272,159.990616 
M132.154022,128.414886 
	C143.709747,133.787842 155.725632,135.381561 168.127213,132.238846 
	C189.951218,126.708366 204.135635,112.891426 208.881180,91.005806 
	C214.043045,67.200233 205.909515,47.675568 185.945923,33.627048 
	C168.780624,21.547709 144.243210,21.506411 126.567825,32.908054 
	C90.649399,56.077518 93.285622,107.229210 132.154022,128.414886 
z"/>
<path fill="#545c69de" opacity="1.000000" stroke="none" 
	d="
M335.036438,292.852173 
	C330.689911,299.560211 324.825623,302.575226 317.178650,302.437469 
	C309.365662,302.296722 301.548126,302.406311 293.087036,302.406311 
	C293.087036,300.489075 293.087097,298.888702 293.087036,297.288330 
	C293.086334,277.966827 293.107788,258.645294 293.074280,239.323853 
	C293.060547,231.398926 289.835236,228.261169 281.802917,228.214722 
	C276.972687,228.186798 272.142181,228.199173 267.311829,228.211029 
	C258.400330,228.232895 255.233704,231.336777 255.228378,240.100189 
	C255.216858,259.088562 255.224655,278.076935 255.224564,297.065308 
	C255.224564,298.690125 255.224564,300.314941 255.224564,302.198395 
	C245.532562,302.198395 236.227295,302.695068 226.999588,302.061615 
	C217.375565,301.400909 210.568634,292.463318 210.534180,281.511810 
	C210.463440,259.025787 210.510788,236.539413 210.509552,214.053192 
	C210.509460,212.406128 210.509552,210.759064 210.509552,207.822983 
	C207.420517,210.032852 205.132324,211.713364 202.799942,213.330139 
	C196.074631,217.992065 187.780701,216.866714 183.279861,210.708145 
	C178.673447,204.405182 179.941422,196.187256 186.606903,191.316116 
	C212.939148,172.072617 239.329208,152.908066 265.735321,133.765915 
	C271.216736,129.792358 276.955933,129.680161 282.423309,133.631973 
	C308.991364,152.835342 335.519928,172.093735 361.991089,191.430389 
	C368.445770,196.145416 369.664734,204.212524 365.248688,210.431473 
	C360.738678,216.782745 352.558441,218.089661 345.834808,213.501389 
	C343.426727,211.858093 341.069763,210.139908 337.851135,207.862808 
	C337.851135,210.388718 337.851166,211.971970 337.851135,213.555222 
	C337.850891,236.041443 337.973633,258.528961 337.731934,281.012604 
	C337.690613,284.858032 336.092468,288.686737 335.036438,292.852173 
z"/>
<path fill="#545c69de" opacity="1.000000" stroke="none" 
	d="
M212.386200,160.210327 
	C201.983353,167.754288 191.853378,175.042709 181.783264,182.412949 
	C171.796326,189.722321 168.246292,200.286087 172.114517,210.841278 
	C175.869049,221.086227 185.181213,226.658401 197.485489,226.034195 
	C198.301376,225.992798 199.121185,226.028778 200.237488,226.028778 
	C200.237488,233.004532 200.237488,239.894958 200.237488,247.068466 
	C198.450623,247.068466 196.965225,247.068466 195.479813,247.068466 
	C150.009552,247.068497 104.539291,247.071686 59.069035,247.065948 
	C49.734348,247.064774 47.114792,244.081802 48.274590,234.839920 
	C54.415230,185.908112 89.954681,148.423248 138.890671,140.276627 
	C165.871552,135.784973 191.162643,141.401749 214.324310,156.116272 
	C214.719330,156.367249 214.995438,156.805435 215.584473,157.428650 
	C214.567322,158.327484 213.626297,159.159042 212.386200,160.210327 
z"/>
<path fill="#545c69de" opacity="1.000000" stroke="none" 
	d="
M131.813812,128.255829 
	C93.285622,107.229210 90.649399,56.077518 126.567825,32.908054 
	C144.243210,21.506411 168.780624,21.547709 185.945923,33.627048 
	C205.909515,47.675568 214.043045,67.200233 208.881180,91.005806 
	C204.135635,112.891426 189.951218,126.708366 168.127213,132.238846 
	C155.725632,135.381561 143.709747,133.787842 131.813812,128.255829 
z"/>
</svg>