<svg version="1.1" id="Layer_1" xmlns="http://www.w3.org/2000/svg" xmlns:xlink="http://www.w3.org/1999/xlink" x="0px" y="0px"
	 height="800px" width="800px" viewBox="0 0 339 232"  xml:space="preserve">
<path fill="#FEFEFE" opacity="1.000000" stroke="none" 
	d="
M247.000000,233.000000 
	C164.666687,233.000000 82.833382,233.000000 1.000055,233.000000 
	C1.000037,155.666718 1.000037,78.333427 1.000018,1.000107 
	C113.999916,1.000071 226.999832,1.000071 339.999817,1.000036 
	C339.999878,78.333229 339.999878,155.666458 339.999939,232.999847 
	C309.166656,233.000000 278.333344,233.000000 247.000000,233.000000 
M99.994156,74.964859 
	C99.295723,75.562645 98.597298,76.160439 97.334785,76.827766 
	C96.383499,77.559128 95.432205,78.290497 93.895386,79.280449 
	C91.261345,80.054169 88.667480,81.244629 85.983795,81.503288 
	C82.024574,81.884880 78.000923,81.562431 74.005592,81.611549 
	C61.389118,81.766632 53.091976,90.040215 53.075451,102.616631 
	C53.035637,132.919006 53.056068,163.221466 53.078156,193.523880 
	C53.079235,195.004456 53.327530,196.484863 53.292088,198.506256 
	C53.531765,199.002914 53.771442,199.499588 53.959312,200.726639 
	C56.987038,209.291916 62.846695,214.199692 72.777458,215.130646 
	C141.195831,215.171112 209.614197,215.213577 278.032562,215.231766 
	C278.994568,215.232010 279.956635,214.927597 281.662994,214.908157 
	C283.767792,214.183456 285.872620,213.458755 288.581146,212.718323 
	C289.356018,212.133331 290.130859,211.548340 291.526398,210.799347 
	C292.762543,209.392136 293.998718,207.984940 295.776123,206.243317 
	C296.098389,205.488297 296.420654,204.733276 297.151855,203.380005 
	C297.692841,201.563766 298.233795,199.747543 299.166107,197.233459 
	C299.202240,165.476334 299.240814,133.719208 299.256897,101.962074 
	C299.257233,101.324722 298.995209,100.687241 299.016357,99.285530 
	C298.029480,93.040977 295.318329,87.919151 289.150635,84.213165 
	C287.426544,83.561760 285.702484,82.910355 283.086426,81.954918 
	C280.968597,81.851944 278.850189,81.760010 276.733093,81.643867 
	C271.070618,81.333237 265.408691,81.012230 259.388580,80.081795 
	C235.341537,63.354233 211.294495,46.626671 186.970474,29.345667 
	C186.496643,28.949482 186.022812,28.553297 185.599487,27.439583 
	C184.703781,23.150137 182.602371,19.974064 177.475815,18.717113 
	C176.048157,18.991222 174.620514,19.265331 172.516312,19.491240 
	C170.733093,21.364492 168.869812,23.169054 167.188232,25.129482 
	C165.349289,27.273348 164.025589,30.004900 161.864075,31.696882 
	C156.914413,35.571381 151.571457,38.940636 146.423660,42.565411 
	C131.943268,52.761623 117.480804,62.983273 102.391792,73.242218 
	C101.774323,73.771393 101.156860,74.300568 99.994156,74.964859 
z"/>
<path fill="#323232" opacity="1.000000" stroke="none" 
	d="
M289.568604,84.775833 
	C295.318329,87.919151 298.029480,93.040977 298.658081,99.971664 
	C298.193604,101.472496 297.995026,102.287140 297.994598,103.101891 
	C297.978790,133.458237 297.971802,163.814606 298.014832,194.170898 
	C298.016602,195.424713 298.510284,196.677856 298.774780,197.931305 
	C298.233795,199.747543 297.692841,201.563766 296.606445,203.763031 
	C295.785645,204.956619 295.510254,205.767181 295.234863,206.577744 
	C293.998718,207.984940 292.762543,209.392136 290.885803,210.874115 
	C289.489258,211.543945 288.733337,212.138992 287.977417,212.734055 
	C285.872620,213.458755 283.767792,214.183456 280.977783,214.575287 
	C279.303772,214.152512 278.315063,213.984085 277.326263,213.983871 
	C210.336258,213.969727 143.346237,213.964218 76.356247,214.000168 
	C74.929604,214.000931 73.503220,214.492142 72.076714,214.754547 
	C62.846695,214.199692 56.987038,209.291916 54.205582,200.221451 
	C54.121468,199.132629 53.791084,198.548981 53.460705,197.965347 
	C53.327530,196.484863 53.079235,195.004456 53.078156,193.523880 
	C53.056068,163.221466 53.035637,132.919006 53.075451,102.616631 
	C53.091976,90.040215 61.389118,81.766632 74.005592,81.611549 
	C78.000923,81.562431 82.024574,81.884880 85.983795,81.503288 
	C88.667480,81.244629 91.261345,80.054169 94.513397,79.237869 
	C96.404221,79.979851 97.677032,80.764412 99.367714,81.571938 
	C148.641342,81.618263 197.497116,81.638931 246.352875,81.675453 
	C248.172150,81.676811 249.991302,81.832550 252.173401,81.980423 
	C253.394379,81.707573 254.252457,81.370636 255.573914,81.020905 
	C257.273712,80.903847 258.510132,80.799591 259.746552,80.695343 
	C265.408691,81.012230 271.070618,81.333237 276.733093,81.643867 
	C278.850189,81.760010 280.968597,81.851944 283.616028,82.452026 
	C285.953308,83.558037 287.760956,84.166931 289.568604,84.775833 
M282.930328,87.110870 
	C282.271759,87.123611 281.613220,87.136360 280.034424,87.310593 
	C239.340866,87.309029 198.647324,87.310204 157.953766,87.293610 
	C156.635635,87.293076 155.317566,87.111023 153.969620,86.181374 
	C153.076859,85.459663 152.198837,84.134201 151.288986,84.111969 
	C144.153961,83.937653 137.008850,83.897316 129.878250,84.144737 
	C128.887024,84.179138 127.958176,86.011604 126.088814,87.251503 
	C108.938255,87.269447 91.787621,87.261139 74.637177,87.315216 
	C64.430557,87.347404 59.025799,92.800674 59.017815,103.085793 
	C58.994423,133.224792 58.998287,163.363861 59.022598,193.502869 
	C59.030907,203.807922 64.342606,209.111465 74.751137,209.116425 
	C142.355789,209.148560 209.960464,209.156174 277.565125,209.147339 
	C288.023468,209.145966 293.173431,203.960266 293.180145,193.483002 
	C293.199249,163.510498 293.051056,133.537003 293.270996,103.566124 
	C293.328827,95.684937 290.217255,90.536049 282.930328,87.110870 
z"/>
<path fill="#373737" opacity="1.000000" stroke="none" 
	d="
M259.567566,80.388565 
	C258.510132,80.799591 257.273712,80.903847 255.405075,80.780556 
	C254.243179,80.349426 253.713501,80.145836 252.851883,79.843323 
	C229.949509,64.026108 207.379074,48.307831 185.574921,33.123196 
	C182.541183,34.678799 180.271622,35.842567 177.794006,36.745808 
	C176.393539,36.646935 175.201096,36.808590 173.644577,36.988846 
	C171.255630,35.672012 169.230774,34.336575 167.030807,32.885662 
	C166.694077,33.115204 166.151428,33.480679 165.613266,33.852646 
	C143.646469,49.035679 121.680061,64.219299 99.352219,79.184708 
	C98.626839,78.230446 98.262848,77.494339 97.898865,76.758224 
	C98.597298,76.160439 99.295723,75.562645 100.613602,74.928726 
	C101.825783,74.326691 102.418526,73.760796 103.011269,73.194893 
	C117.480804,62.983273 131.943268,52.761623 146.423660,42.565411 
	C151.571457,38.940636 156.914413,35.571381 161.864075,31.696882 
	C164.025589,30.004900 165.349289,27.273348 167.188232,25.129482 
	C168.869812,23.169054 170.733093,21.364492 173.267960,19.649773 
	C175.329391,19.590382 176.639175,19.372456 177.948959,19.154530 
	C182.602371,19.974064 184.703781,23.150137 185.424759,28.033031 
	C185.915833,29.050692 186.581635,29.474903 187.247437,29.899113 
	C211.294495,46.626671 235.341537,63.354233 259.567566,80.388565 
z"/>
<path fill="#404040" opacity="1.000000" stroke="none" 
	d="
M72.427086,214.942596 
	C73.503220,214.492142 74.929604,214.000931 76.356247,214.000168 
	C143.346237,213.964218 210.336258,213.969727 277.326263,213.983871 
	C278.315063,213.984085 279.303772,214.152512 280.605591,214.503906 
	C279.956635,214.927597 278.994568,215.232010 278.032562,215.231766 
	C209.614197,215.213577 141.195831,215.171112 72.427086,214.942596 
z"/>
<path fill="#404040" opacity="1.000000" stroke="none" 
	d="
M298.970459,197.582382 
	C298.510284,196.677856 298.016602,195.424713 298.014832,194.170898 
	C297.971802,163.814606 297.978790,133.458237 297.994598,103.101891 
	C297.995026,102.287140 298.193604,101.472496 298.577698,100.353813 
	C298.995209,100.687241 299.257233,101.324722 299.256897,101.962074 
	C299.240814,133.719208 299.202240,165.476334 298.970459,197.582382 
z"/>
<path fill="#414141" opacity="1.000000" stroke="none" 
	d="
M97.616821,76.792999 
	C98.262848,77.494339 98.626839,78.230446 99.212540,79.538925 
	C99.272781,80.590523 99.111313,81.069740 98.949852,81.548965 
	C97.677032,80.764412 96.404221,79.979851 94.806160,79.108582 
	C95.432205,78.290497 96.383499,77.559128 97.616821,76.792999 
z"/>
<path fill="#404040" opacity="1.000000" stroke="none" 
	d="
M289.359619,84.494492 
	C287.760956,84.166931 285.953308,83.558037 284.062012,82.604042 
	C285.702484,82.910355 287.426544,83.561760 289.359619,84.494492 
z"/>
<path fill="#414141" opacity="1.000000" stroke="none" 
	d="
M177.712387,18.935822 
	C176.639175,19.372456 175.329391,19.590382 173.606232,19.673874 
	C174.620514,19.265331 176.048157,18.991222 177.712387,18.935822 
z"/>
<path fill="#404040" opacity="1.000000" stroke="none" 
	d="
M288.279297,212.726196 
	C288.733337,212.138992 289.489258,211.543945 290.575439,210.956116 
	C290.130859,211.548340 289.356018,212.133331 288.279297,212.726196 
z"/>
<path fill="#414141" opacity="1.000000" stroke="none" 
	d="
M187.108948,29.622391 
	C186.581635,29.474903 185.915833,29.050692 185.399506,28.391796 
	C186.022812,28.553297 186.496643,28.949482 187.108948,29.622391 
z"/>
<path fill="#404040" opacity="1.000000" stroke="none" 
	d="
M53.376396,198.235809 
	C53.791084,198.548981 54.121468,199.132629 54.231483,199.856262 
	C53.771442,199.499588 53.531765,199.002914 53.376396,198.235809 
z"/>
<path fill="#404040" opacity="1.000000" stroke="none" 
	d="
M295.505493,206.410522 
	C295.510254,205.767181 295.785645,204.956619 296.401978,204.062164 
	C296.420654,204.733276 296.098389,205.488297 295.505493,206.410522 
z"/>
<path fill="#414141" opacity="1.000000" stroke="none" 
	d="
M102.701530,73.218552 
	C102.418526,73.760796 101.825783,74.326691 100.886215,74.861160 
	C101.156860,74.300568 101.774323,73.771393 102.701530,73.218552 
z"/>
<path fill="#F9F9F9" opacity="1.000000" stroke="none" 
	d="
M99.367714,81.571938 
	C99.111313,81.069740 99.272781,80.590523 99.573929,79.757072 
	C121.680061,64.219299 143.646469,49.035679 165.613266,33.852646 
	C166.151428,33.480679 166.694077,33.115204 167.030807,32.885662 
	C169.230774,34.336575 171.255630,35.672012 173.895065,37.170715 
	C175.673767,37.224770 176.837906,37.115551 178.002045,37.006332 
	C180.271622,35.842567 182.541183,34.678799 185.574921,33.123196 
	C207.379074,48.307831 229.949509,64.026108 252.803574,80.159416 
	C252.661636,81.021751 252.236069,81.469048 251.810501,81.916351 
	C249.991302,81.832550 248.172150,81.676811 246.352875,81.675453 
	C197.497116,81.638931 148.641342,81.618263 99.367714,81.571938 
z"/>
<path fill="#EDEDED" opacity="1.000000" stroke="none" 
	d="
M153.999466,87.013588 
	C155.317566,87.111023 156.635635,87.293076 157.953766,87.293610 
	C198.647324,87.310204 239.340866,87.309029 280.702148,87.422302 
	C281.922821,87.577660 282.475769,87.621307 283.028748,87.664948 
	C290.217255,90.536049 293.328827,95.684937 293.270996,103.566124 
	C293.051056,133.537003 293.199249,163.510498 293.180145,193.483002 
	C293.173431,203.960266 288.023468,209.145966 277.565125,209.147339 
	C209.960464,209.156174 142.355789,209.148560 74.751137,209.116425 
	C64.342606,209.111465 59.030907,203.807922 59.022598,193.502869 
	C58.998287,163.363861 58.994423,133.224792 59.017815,103.085793 
	C59.025799,92.800674 64.430557,87.347404 74.637177,87.315216 
	C91.787621,87.261139 108.938255,87.269447 126.998505,87.259903 
	C136.605286,87.183388 145.302383,87.098488 153.999466,87.013588 
M258.207245,93.044579 
	C247.279007,93.160095 236.350784,93.275612 224.444443,93.145439 
	C191.630814,93.124268 158.817184,93.092842 126.003548,93.096947 
	C122.519867,93.097389 119.036209,93.305939 114.733154,93.067284 
	C101.747040,93.041527 88.760902,92.991508 75.774811,92.998367 
	C66.815155,93.003098 64.148354,95.671326 64.146393,104.554832 
	C64.140030,133.358749 64.147797,162.162674 64.151543,190.966583 
	C64.152855,201.036942 66.838463,203.793640 76.744377,203.801193 
	C114.872070,203.830231 152.999786,203.848923 191.127487,203.863586 
	C219.764908,203.874603 248.402328,203.891037 277.039734,203.865707 
	C284.294800,203.859299 287.971497,200.923294 287.994781,194.494003 
	C288.106445,163.692581 288.106506,132.890152 287.946320,102.089104 
	C287.923798,97.761955 286.248688,93.884224 280.045349,93.139191 
	C273.042786,93.179214 266.040253,93.219246 258.207245,93.044579 
z"/>
<path fill="#373737" opacity="1.000000" stroke="none" 
	d="
M153.984543,86.597481 
	C145.302383,87.098488 136.605286,87.183388 127.454330,87.139999 
	C127.958176,86.011604 128.887024,84.179138 129.878250,84.144737 
	C137.008850,83.897316 144.153961,83.937653 151.288986,84.111969 
	C152.198837,84.134201 153.076859,85.459663 153.984543,86.597481 
z"/>
<path fill="#414141" opacity="1.000000" stroke="none" 
	d="
M252.173401,81.980431 
	C252.236069,81.469048 252.661636,81.021751 253.135513,80.258347 
	C253.713501,80.145836 254.243179,80.349426 254.941696,80.793358 
	C254.252457,81.370636 253.394379,81.707573 252.173401,81.980431 
z"/>
<path fill="#404040" opacity="1.000000" stroke="none" 
	d="
M282.979553,87.387909 
	C282.475769,87.621307 281.922821,87.577660 281.162231,87.341553 
	C281.613220,87.136360 282.271759,87.123611 282.979553,87.387909 
z"/>
<path fill="#414141" opacity="1.000000" stroke="none" 
	d="
M177.794006,36.745804 
	C176.837906,37.115551 175.673767,37.224770 174.259140,37.152115 
	C175.201096,36.808590 176.393539,36.646935 177.794006,36.745804 
z"/>
<path fill="#404040" opacity="1.000000" stroke="none" 
	d="
M225.422546,93.391129 
	C236.350784,93.275612 247.279007,93.160095 258.733704,93.528358 
	C266.265778,94.223785 273.271149,94.447441 280.278198,94.591202 
	C280.496307,94.595665 280.731384,93.773346 280.958527,93.336487 
	C286.248688,93.884224 287.923798,97.761955 287.946320,102.089104 
	C288.106506,132.890152 288.106445,163.692581 287.994781,194.494003 
	C287.971497,200.923294 284.294800,203.859299 277.039734,203.865707 
	C248.402328,203.891037 219.764908,203.874603 191.127487,203.863586 
	C152.999786,203.848923 114.872070,203.830231 76.744377,203.801193 
	C66.838463,203.793640 64.152855,201.036942 64.151543,190.966583 
	C64.147797,162.162674 64.140030,133.358749 64.146393,104.554832 
	C64.148354,95.671326 66.815155,93.003098 75.774811,92.998367 
	C88.760902,92.991508 101.747040,93.041527 115.433075,93.630722 
	C117.558754,94.473732 118.984192,94.995476 120.410324,94.997353 
	C153.792450,95.041275 187.174728,95.051895 220.556656,94.957550 
	C222.180084,94.952957 223.800644,93.936432 225.422546,93.391129 
M105.500000,197.932175 
	C162.327988,197.936798 219.156021,197.917282 275.983887,197.999176 
	C279.865021,198.004761 282.133057,197.594925 282.100830,192.713608 
	C281.905090,163.050995 281.939178,133.386215 282.065857,103.722885 
	C282.083069,99.689041 280.526611,98.566231 276.758545,98.568405 
	C209.764877,98.607132 142.771133,98.582504 75.777527,98.482681 
	C71.811470,98.476776 70.122353,99.608452 70.142525,103.891624 
	C70.282211,133.554871 70.272972,163.219284 70.151741,192.882675 
	C70.135201,196.930267 71.719826,198.045334 75.503822,197.976303 
	C85.166267,197.800049 94.834236,197.926697 105.500000,197.932175 
z"/>
<path fill="#292929" opacity="1.000000" stroke="none" 
	d="
M224.933502,93.268288 
	C223.800644,93.936432 222.180084,94.952957 220.556656,94.957550 
	C187.174728,95.051895 153.792450,95.041275 120.410324,94.997353 
	C118.984192,94.995476 117.558754,94.473732 115.842766,93.806053 
	C119.036209,93.305939 122.519867,93.097389 126.003548,93.096947 
	C158.817184,93.092842 191.630814,93.124268 224.933502,93.268288 
z"/>
<path fill="#292929" opacity="1.000000" stroke="none" 
	d="
M280.501953,93.237839 
	C280.731384,93.773346 280.496307,94.595665 280.278198,94.591202 
	C273.271149,94.447441 266.265778,94.223785 259.148926,93.635704 
	C266.040253,93.219246 273.042786,93.179214 280.501953,93.237839 
z"/>
<path fill="#F4F4F4" opacity="1.000000" stroke="none" 
	d="
M105.000000,197.932159 
	C94.834236,197.926697 85.166267,197.800049 75.503822,197.976303 
	C71.719826,198.045334 70.135201,196.930267 70.151741,192.882675 
	C70.272972,163.219284 70.282211,133.554871 70.142525,103.891624 
	C70.122353,99.608452 71.811470,98.476776 75.777527,98.482681 
	C142.771133,98.582504 209.764877,98.607132 276.758545,98.568405 
	C280.526611,98.566231 282.083069,99.689041 282.065857,103.722885 
	C281.939178,133.386215 281.905090,163.050995 282.100830,192.713608 
	C282.133057,197.594925 279.865021,198.004761 275.983887,197.999176 
	C219.156021,197.917282 162.327988,197.936798 105.000000,197.932159 
M197.995697,152.486206 
	C197.936508,152.325226 197.877304,152.164246 197.954926,151.075974 
	C198.010254,145.390564 198.065582,139.705154 198.897064,134.057175 
	C199.156052,134.052856 199.415024,134.048553 199.967529,134.637634 
	C201.376419,139.730621 202.553452,144.906845 204.334351,149.866241 
	C204.874039,151.369171 206.979706,153.065506 208.552185,153.272110 
	C211.188019,153.618439 214.560699,154.696121 215.761826,150.303558 
	C217.628616,143.476639 219.891251,136.757950 222.650528,130.516083 
	C222.650528,138.086945 222.650528,145.657806 222.650528,153.176788 
	C226.173111,153.176788 228.769211,153.176788 231.524536,153.176788 
	C231.524536,136.695190 231.524536,120.511528 231.524536,103.914429 
	C229.368896,103.914429 227.525467,103.680328 225.774933,103.983162 
	C224.166397,104.261444 221.621674,104.760040 221.270432,105.776825 
	C218.625397,113.433754 216.420685,121.242783 213.616989,129.602631 
	C212.785553,132.026962 211.954117,134.451309 211.122681,136.875641 
	C210.657608,136.907211 210.192535,136.938766 209.727463,136.970337 
	C207.807602,130.983337 205.887741,124.996361 204.437958,118.735359 
	C204.064850,118.142090 203.691727,117.548820 202.979187,116.275314 
	C202.012177,113.632408 200.651001,111.058533 200.173096,108.329964 
	C199.502594,104.501648 197.681854,103.187401 193.244705,103.918091 
	C191.879349,104.619682 190.513992,105.321274 188.989502,106.896729 
	C189.059631,109.259827 189.129776,111.622917 188.986511,114.656342 
	C189.073639,115.110054 189.160767,115.563774 189.025131,116.899857 
	C189.103607,119.927261 189.182083,122.954674 189.009628,126.652893 
	C189.086411,127.115326 189.163193,127.577751 189.061081,128.956802 
	C189.047897,136.954651 189.034729,144.952484 189.128983,153.737015 
	C192.232925,155.260620 195.325989,156.653366 197.995697,152.486206 
M184.131470,120.892609 
	C183.949722,119.906433 183.767975,118.920258 183.377563,117.100151 
	C183.097580,107.810509 178.783356,103.803047 169.192902,103.924110 
	C160.050034,104.039520 155.499039,108.378342 155.434677,117.206779 
	C155.374069,125.520561 155.289902,133.838821 155.491135,142.148453 
	C155.669525,149.515198 160.944199,153.627548 169.569916,153.531281 
	C178.620255,153.430252 183.133499,149.683228 183.307007,141.991272 
	C183.464310,135.017471 183.504227,128.040985 184.131470,120.892609 
M115.954391,153.321960 
	C118.994743,145.532043 117.115471,137.003952 111.319740,132.290054 
	C116.325066,127.592224 118.421646,116.214325 114.785347,110.364082 
	C113.315971,108.000069 110.554611,105.178505 108.124588,104.912895 
	C101.333969,104.170662 94.409309,104.654640 87.551559,104.654640 
	C87.551559,120.949196 87.551559,136.998764 87.551559,153.093094 
	C90.780968,153.093094 93.629448,153.093094 97.025818,153.093094 
	C97.025818,146.892365 97.025818,141.165222 97.025818,135.487915 
	C106.915108,135.187851 107.969963,136.201736 107.944756,145.415604 
	C107.937981,147.893753 107.943726,150.371948 107.943726,153.513504 
	C110.539024,153.513504 112.817909,153.513504 115.954391,153.321960 
M122.011276,126.511620 
	C122.016083,131.496506 121.905899,136.484756 122.052063,141.465485 
	C122.283775,149.361038 127.445557,153.554993 136.569519,153.457581 
	C145.410461,153.363190 150.105896,149.202408 150.192322,141.165756 
	C150.283417,132.694275 150.283752,124.220131 150.185074,115.748772 
	C150.098633,108.329742 145.015900,104.015755 136.525787,103.936096 
	C127.792450,103.854156 122.366249,108.163612 122.059631,115.551620 
	C121.921959,118.869034 122.020447,122.196251 122.011276,126.511620 
M253.897507,146.467804 
	C247.644135,148.533234 246.089844,144.300629 245.123795,139.721161 
	C242.398285,139.721161 239.986435,139.721161 237.623520,139.721161 
	C236.753113,147.069870 240.125931,152.002518 246.560547,153.216003 
	C255.429321,154.888565 263.001312,151.438477 264.672241,144.962753 
	C264.713715,144.801941 264.743225,144.638000 264.776581,144.475128 
	C267.061401,133.314880 262.755920,127.478271 251.520935,125.531120 
	C249.464569,125.174721 246.561783,122.700020 246.257553,120.841698 
	C245.775269,117.895485 246.357056,114.123726 247.962753,111.663246 
	C249.700500,109.000374 254.711121,110.781784 255.882675,114.041695 
	C256.324371,115.270782 256.608215,116.556595 256.952942,117.777382 
	C259.621857,117.777382 262.052216,117.777382 264.427368,117.777382 
	C265.968323,108.691025 260.381073,103.532608 249.786621,103.938705 
	C242.071671,104.234428 237.603867,108.274788 237.232559,115.291687 
	C236.662689,126.061150 239.848785,130.958344 248.256042,132.235321 
	C256.232361,133.446854 258.508911,138.397430 253.897507,146.467804 
M217.735306,159.153580 
	C214.412827,159.049255 211.071823,158.709641 207.777954,158.968826 
	C206.631897,159.059006 204.681885,160.608932 204.660965,161.527740 
	C204.434525,171.471710 204.519577,181.422775 204.519577,191.898041 
	C208.385193,191.898041 211.674927,191.926285 214.964035,191.892410 
	C222.867050,191.811005 226.710342,185.418610 223.485413,178.086487 
	C222.860779,176.666306 222.701355,174.566544 223.279587,173.176361 
	C225.516418,167.798676 223.790604,162.278915 217.735306,159.153580 
M142.652481,170.822372 
	C141.874649,166.932022 141.096817,163.041687 140.348892,159.300949 
	C133.947952,158.473892 133.974167,158.479477 132.748520,164.235886 
	C131.605209,169.605652 130.313309,174.945038 129.248520,180.329773 
	C128.523361,183.996964 128.076660,187.719208 127.510445,191.384415 
	C131.703278,192.570694 133.874390,191.849457 134.307465,187.655121 
	C134.429794,186.470413 136.125824,185.448181 137.100098,184.351440 
	C137.947937,185.366028 139.000351,186.275604 139.589386,187.423050 
	C140.254532,188.718765 140.503098,190.228333 140.910278,191.570572 
	C142.875854,191.570572 144.626328,191.570572 146.717896,191.570572 
	C145.361862,184.678467 144.081741,178.172287 142.652481,170.822372 
M190.410843,185.218445 
	C193.503632,183.233810 195.214325,184.506485 195.462463,187.738068 
	C195.826889,192.484467 198.420807,192.450333 202.184448,191.289474 
	C200.257477,181.173401 198.456528,171.227509 196.343628,161.348343 
	C196.119934,160.302429 194.021561,158.929932 192.871964,159.000305 
	C191.540970,159.081757 189.426392,160.382202 189.153503,161.515137 
	C186.938629,170.710648 185.062454,179.988174 183.132004,189.250916 
	C182.979782,189.981293 183.196442,190.788544 183.243118,191.584717 
	C185.335846,191.584717 187.067169,191.584717 188.846603,191.584717 
	C189.300735,189.491913 189.687180,187.711105 190.410843,185.218445 
M104.545563,179.928375 
	C103.404831,174.063293 102.447441,168.152039 100.990257,162.366669 
	C100.640182,160.976776 98.814095,159.436813 97.344978,158.962326 
	C94.531097,158.053497 93.702446,160.192200 93.325958,162.568832 
	C93.015366,164.529465 92.495964,166.456223 92.099937,168.404266 
	C90.554657,176.005417 89.021645,183.609055 87.448822,191.386078 
	C91.454727,192.384827 94.069992,192.361603 94.351677,187.605347 
	C94.419083,186.467087 96.178795,185.429047 97.160179,184.344910 
	C98.139542,185.412338 99.876373,186.420364 99.965538,187.557587 
	C100.327789,192.177902 102.816193,192.512024 106.942856,191.332932 
	C106.203529,187.762894 105.477692,184.257965 104.545563,179.928375 
M257.415894,172.466553 
	C252.418167,172.168137 251.890747,170.866165 254.011780,163.508560 
	C256.727509,163.508560 259.563599,163.695023 262.349823,163.403931 
	C263.281799,163.306564 264.086365,161.989609 264.949158,161.230133 
	C264.132507,160.427475 263.344177,158.966721 262.494598,158.930176 
	C257.419922,158.711975 252.331131,158.822159 247.254761,158.822159 
	C247.254761,170.244461 247.254761,180.826309 247.254761,191.911011 
	C252.326721,191.911011 257.121460,192.043732 261.898102,191.808334 
	C262.959381,191.756027 263.956726,190.406204 264.983490,189.653809 
	C263.865997,188.821930 262.822937,187.432861 261.615845,187.271500 
	C258.908997,186.909698 256.120605,187.158188 253.366486,187.158188 
	C253.366486,183.484634 253.366486,180.569901 253.366486,177.202667 
	C255.283859,177.202667 256.979034,177.486420 258.530151,177.134842 
	C260.746521,176.632477 264.877655,179.110428 264.755127,174.743469 
	C264.637665,170.556656 260.546600,173.219803 257.415894,172.466553 
M108.229401,164.991486 
	C109.768486,172.289368 111.675880,179.535004 112.721512,186.902908 
	C113.459572,192.103546 115.913467,192.679138 120.296196,191.395264 
	C122.465508,180.649902 124.611488,170.020111 126.768684,159.334793 
	C122.606445,158.090408 120.410027,158.745026 119.983025,163.222153 
	C119.604309,167.193115 118.446815,171.089798 117.633095,175.019272 
	C117.042679,175.048218 116.452255,175.077164 115.861832,175.106110 
	C115.288353,171.191406 114.412308,167.291656 114.217865,163.358215 
	C113.973877,158.422668 111.609467,158.041443 107.621422,159.501404 
	C107.784767,161.162445 107.929619,162.635468 108.229401,164.991486 
M173.450821,187.135818 
	C171.890884,187.011230 170.330933,186.886658 168.300125,186.724472 
	C168.300125,177.193619 168.300125,168.256180 168.300125,159.419525 
	C162.278351,158.447403 162.253189,158.447220 162.216980,163.481964 
	C162.179855,168.645218 162.197006,173.808884 162.193710,178.972366 
	C162.191010,183.211700 162.193176,187.451035 162.193176,191.913284 
	C167.941620,191.913284 172.766724,192.025604 177.577469,191.812927 
	C178.476425,191.773209 179.317810,190.430923 180.185760,189.689774 
	C179.422134,188.845139 178.805328,187.662460 177.854279,187.249374 
	C176.871033,186.822342 175.563126,187.142746 173.450821,187.135818 
M226.708099,172.505676 
	C226.708099,178.792892 226.708099,185.080109 226.708099,191.903305 
	C232.125824,191.903305 237.076584,192.012222 242.013550,191.799988 
	C242.872787,191.763046 243.673798,190.371170 244.501694,189.605118 
	C243.551315,188.787628 242.671082,187.390060 241.636978,187.265015 
	C238.897064,186.933731 236.090607,187.152649 232.719482,187.152649 
	C232.719482,177.496597 232.719482,168.429581 232.719482,159.191635 
	C230.415375,159.191635 228.728531,159.191635 226.707138,159.191635 
	C226.707138,163.555893 226.707138,167.531921 226.708099,172.505676 
M157.847504,178.488739 
	C157.847504,172.072586 157.847504,165.656433 157.847504,159.080704 
	C155.435867,159.080704 153.840057,159.080704 151.925842,159.080704 
	C151.925842,170.008636 151.925842,180.706146 151.925842,191.612213 
	C153.953995,191.612213 155.675522,191.612213 157.847992,191.612213 
	C157.847992,187.389557 157.847992,183.436264 157.847504,178.488739 
z"/>
<path fill="#404040" opacity="1.000000" stroke="none" 
	d="
M115.525589,153.417725 
	C112.817909,153.513504 110.539024,153.513504 107.943726,153.513504 
	C107.943726,150.371948 107.937981,147.893753 107.944756,145.415604 
	C107.969963,136.201736 106.915108,135.187851 97.025818,135.487915 
	C97.025818,141.165222 97.025818,146.892365 97.025818,153.093094 
	C93.629448,153.093094 90.780968,153.093094 87.551559,153.093094 
	C87.551559,136.998764 87.551559,120.949196 87.551559,104.654640 
	C94.409309,104.654640 101.333969,104.170662 108.124588,104.912895 
	C110.554611,105.178505 113.315971,108.000069 114.785347,110.364082 
	C118.421646,116.214325 116.325066,127.592224 111.319740,132.290054 
	C117.115471,137.003952 118.994743,145.532043 115.525589,153.417725 
M107.504181,121.975800 
	C107.610695,111.087784 105.778648,109.277100 96.945282,111.519371 
	C96.945282,116.919830 96.945282,122.311432 96.945282,127.657959 
	C104.701187,128.723511 105.630638,128.277420 107.504181,121.975800 
M112.942383,117.837463 
	C112.792007,117.588486 112.688370,117.205246 112.476952,117.131638 
	C112.297447,117.069145 111.993523,117.364029 111.744644,117.500771 
	C111.994003,117.638260 112.243362,117.775742 112.942383,117.837463 
z"/>
<path fill="#3D3D3D" opacity="1.000000" stroke="none" 
	d="
M183.595886,121.065689 
	C183.504227,128.040985 183.464310,135.017471 183.307007,141.991272 
	C183.133499,149.683228 178.620255,153.430252 169.569916,153.531281 
	C160.944199,153.627548 155.669525,149.515198 155.491135,142.148453 
	C155.289902,133.838821 155.374069,125.520561 155.434677,117.206779 
	C155.499039,108.378342 160.050034,104.039520 169.192902,103.924110 
	C178.783356,103.803047 183.097580,107.810509 183.326874,117.893143 
	C183.382767,119.479317 183.489319,120.272507 183.595886,121.065689 
M174.410034,113.403358 
	C173.141541,109.973022 170.091721,110.055374 167.820740,111.144684 
	C166.151199,111.945488 164.389374,114.475555 164.299347,116.314819 
	C163.910706,124.254349 164.134964,132.223328 164.111008,140.181519 
	C164.100189,143.775421 165.316040,146.450775 169.324219,146.675415 
	C173.515381,146.910309 174.883194,143.996811 174.915039,140.583664 
	C174.996964,131.805588 174.777786,123.024689 174.410034,113.403358 
z"/>
<path fill="#3C3C3C" opacity="1.000000" stroke="none" 
	d="
M122.011528,126.015320 
	C122.020447,122.196251 121.921959,118.869034 122.059631,115.551620 
	C122.366249,108.163612 127.792450,103.854156 136.525787,103.936096 
	C145.015900,104.015755 150.098633,108.329742 150.185074,115.748772 
	C150.283752,124.220131 150.283417,132.694275 150.192322,141.165756 
	C150.105896,149.202408 145.410461,153.363190 136.569519,153.457581 
	C127.445557,153.554993 122.283775,149.361038 122.052063,141.465485 
	C121.905899,136.484756 122.016083,131.496506 122.011528,126.015320 
M141.117371,113.154900 
	C137.383636,109.315971 133.767593,109.745560 131.144318,114.855713 
	C131.149200,118.242714 131.154099,121.629715 130.895111,125.884216 
	C130.900009,130.674194 130.627747,135.488205 131.040390,140.242798 
	C131.215942,142.265717 132.442551,145.404175 133.867523,145.843628 
	C136.321442,146.600433 139.799728,146.800980 141.519592,142.339798 
	C141.388214,132.876572 141.256851,123.413338 141.117371,113.154900 
z"/>
<path fill="#404040" opacity="1.000000" stroke="none" 
	d="
M254.240524,146.231384 
	C258.508911,138.397430 256.232361,133.446854 248.256042,132.235321 
	C239.848785,130.958344 236.662689,126.061150 237.232559,115.291687 
	C237.603867,108.274788 242.071671,104.234428 249.786621,103.938705 
	C260.381073,103.532608 265.968323,108.691025 264.427368,117.777382 
	C262.052216,117.777382 259.621857,117.777382 256.952942,117.777382 
	C256.608215,116.556595 256.324371,115.270782 255.882675,114.041695 
	C254.711121,110.781784 249.700500,109.000374 247.962753,111.663246 
	C246.357056,114.123726 245.775269,117.895485 246.257553,120.841698 
	C246.561783,122.700020 249.464569,125.174721 251.520935,125.531120 
	C262.755920,127.478271 267.061401,133.314880 264.776581,144.475128 
	C264.743225,144.638000 264.713715,144.801941 264.672241,144.962753 
	C263.001312,151.438477 255.429321,154.888565 246.560547,153.216003 
	C240.125931,152.002518 236.753113,147.069870 237.623520,139.721161 
	C239.986435,139.721161 242.398285,139.721161 245.123795,139.721161 
	C246.089844,144.300629 247.644135,148.533234 254.240524,146.231384 
z"/>
<path fill="#393939" opacity="1.000000" stroke="none" 
	d="
M221.986115,129.993393 
	C219.891251,136.757950 217.628616,143.476639 215.761826,150.303558 
	C214.560699,154.696121 211.188019,153.618439 208.552185,153.272110 
	C206.979706,153.065506 204.874039,151.369171 204.334351,149.866241 
	C202.553452,144.906845 201.376419,139.730621 199.897858,134.067261 
	C199.435425,132.311752 199.042633,131.126587 198.649872,129.941422 
	C198.369553,130.296875 198.089218,130.652313 197.434448,131.006897 
	C195.380341,130.341446 193.700668,129.676865 192.010025,128.654633 
	C191.086227,127.525345 190.173401,126.753716 189.260559,125.982079 
	C189.182083,122.954674 189.103607,119.927261 189.509674,116.472710 
	C192.539673,116.829826 195.085114,117.614082 197.630554,118.398346 
	C197.719482,118.087875 197.808411,117.777412 197.897354,117.466942 
	C194.998199,116.306633 192.099060,115.146324 189.199921,113.986023 
	C189.129776,111.622917 189.059631,109.259827 189.447830,106.461128 
	C191.278931,105.412285 192.651718,104.799042 194.024490,104.185806 
	C197.681854,103.187401 199.502594,104.501648 200.173096,108.329964 
	C200.651001,111.058533 202.012177,113.632408 203.096832,116.904869 
	C203.465622,118.026077 203.716751,118.517723 203.967896,119.009369 
	C205.887741,124.996361 207.807602,130.983337 209.727463,136.970337 
	C210.192535,136.938766 210.657608,136.907211 211.122681,136.875641 
	C211.954117,134.451309 212.785553,132.026962 214.217377,129.350098 
	C223.012070,131.955338 218.359482,123.841423 221.986115,120.464005 
	C221.986115,124.602356 221.986115,127.297874 221.986115,129.993393 
M196.382751,119.009438 
	C195.426636,119.238014 194.470535,119.466591 193.514420,119.695168 
	C193.556747,120.066689 193.599060,120.438202 193.641373,120.809723 
	C195.014114,120.809723 196.386856,120.809723 197.759598,120.809723 
	C197.543350,120.219452 197.327087,119.629173 196.382751,119.009438 
M193.592194,126.515259 
	C193.592194,126.515259 193.478989,126.583237 193.592194,126.515259 
z"/>
<path fill="#3E3E3E" opacity="1.000000" stroke="none" 
	d="
M222.318329,130.254730 
	C221.986115,127.297874 221.986115,124.602356 221.986115,120.464005 
	C218.359482,123.841423 223.012070,131.955338 214.448044,129.050903 
	C216.420685,121.242783 218.625397,113.433754 221.270432,105.776825 
	C221.621674,104.760040 224.166397,104.261444 225.774933,103.983162 
	C227.525467,103.680328 229.368896,103.914429 231.524536,103.914429 
	C231.524536,120.511528 231.524536,136.695190 231.524536,153.176788 
	C228.769211,153.176788 226.173111,153.176788 222.650528,153.176788 
	C222.650528,145.657806 222.650528,138.086945 222.318329,130.254730 
z"/>
<path fill="#404040" opacity="1.000000" stroke="none" 
	d="
M218.148499,159.250183 
	C223.790604,162.278915 225.516418,167.798676 223.279587,173.176361 
	C222.701355,174.566544 222.860779,176.666306 223.485413,178.086487 
	C226.710342,185.418610 222.867050,191.811005 214.964035,191.892410 
	C211.674927,191.926285 208.385193,191.898041 204.519577,191.898041 
	C204.519577,181.422775 204.434525,171.471710 204.660965,161.527740 
	C204.681885,160.608932 206.631897,159.059006 207.777954,158.968826 
	C211.071823,158.709641 214.412827,159.049255 218.148499,159.250183 
M214.157608,173.551300 
	C219.464340,173.060165 218.378662,168.940689 217.809692,166.017395 
	C217.047363,162.100632 213.843018,163.158737 210.690933,163.790985 
	C210.690933,165.779541 210.657166,167.578644 210.700180,169.375916 
	C210.745621,171.274872 210.115448,173.644135 214.157608,173.551300 
M216.165146,177.873138 
	C214.552429,177.873138 212.939728,177.873138 211.105484,177.873138 
	C211.105484,181.346100 211.105484,184.381897 211.105484,187.371796 
	C218.115829,188.100174 219.674957,185.489639 216.165146,177.873138 
z"/>
<path fill="#404040" opacity="1.000000" stroke="none" 
	d="
M142.727051,171.244232 
	C144.081741,178.172287 145.361862,184.678467 146.717896,191.570572 
	C144.626328,191.570572 142.875854,191.570572 140.910278,191.570572 
	C140.503098,190.228333 140.254532,188.718765 139.589386,187.423050 
	C139.000351,186.275604 137.947937,185.366028 137.100098,184.351440 
	C136.125824,185.448181 134.429794,186.470413 134.307465,187.655121 
	C133.874390,191.849457 131.703278,192.570694 127.510445,191.384415 
	C128.076660,187.719208 128.523361,183.996964 129.248520,180.329773 
	C130.313309,174.945038 131.605209,169.605652 132.748520,164.235886 
	C133.974167,158.479477 133.947952,158.473892 140.348892,159.300949 
	C141.096817,163.041687 141.874649,166.932022 142.727051,171.244232 
z"/>
<path fill="#414141" opacity="1.000000" stroke="none" 
	d="
M190.242218,185.574371 
	C189.687180,187.711105 189.300735,189.491913 188.846603,191.584717 
	C187.067169,191.584717 185.335846,191.584717 183.243118,191.584717 
	C183.196442,190.788544 182.979782,189.981293 183.132004,189.250916 
	C185.062454,179.988174 186.938629,170.710648 189.153503,161.515137 
	C189.426392,160.382202 191.540970,159.081757 192.871964,159.000305 
	C194.021561,158.929932 196.119934,160.302429 196.343628,161.348343 
	C198.456528,171.227509 200.257477,181.173401 202.184448,191.289474 
	C198.420807,192.450333 195.826889,192.484467 195.462463,187.738068 
	C195.214325,184.506485 193.503632,183.233810 190.242218,185.574371 
z"/>
<path fill="#3E3E3E" opacity="1.000000" stroke="none" 
	d="
M104.648712,180.340698 
	C105.477692,184.257965 106.203529,187.762894 106.942856,191.332932 
	C102.816193,192.512024 100.327789,192.177902 99.965538,187.557587 
	C99.876373,186.420364 98.139542,185.412338 97.160179,184.344910 
	C96.178795,185.429047 94.419083,186.467087 94.351677,187.605347 
	C94.069992,192.361603 91.454727,192.384827 87.448822,191.386078 
	C89.021645,183.609055 90.554657,176.005417 92.099937,168.404266 
	C92.495964,166.456223 93.015366,164.529465 93.325958,162.568832 
	C93.702446,160.192200 94.531097,158.053497 97.344978,158.962326 
	C98.814095,159.436813 100.640182,160.976776 100.990257,162.366669 
	C102.447441,168.152039 103.404831,174.063293 104.648712,180.340698 
z"/>
<path fill="#3E3E3E" opacity="1.000000" stroke="none" 
	d="
M257.879456,172.464569 
	C260.546600,173.219803 264.637665,170.556656 264.755127,174.743469 
	C264.877655,179.110428 260.746521,176.632477 258.530151,177.134842 
	C256.979034,177.486420 255.283859,177.202667 253.366486,177.202667 
	C253.366486,180.569901 253.366486,183.484634 253.366486,187.158188 
	C256.120605,187.158188 258.908997,186.909698 261.615845,187.271500 
	C262.822937,187.432861 263.865997,188.821930 264.983490,189.653809 
	C263.956726,190.406204 262.959381,191.756027 261.898102,191.808334 
	C257.121460,192.043732 252.326721,191.911011 247.254761,191.911011 
	C247.254761,180.826309 247.254761,170.244461 247.254761,158.822159 
	C252.331131,158.822159 257.419922,158.711975 262.494598,158.930176 
	C263.344177,158.966721 264.132507,160.427475 264.949158,161.230133 
	C264.086365,161.989609 263.281799,163.306564 262.349823,163.403931 
	C259.563599,163.695023 256.727509,163.508560 254.011780,163.508560 
	C251.890747,170.866165 252.418167,172.168137 257.879456,172.464569 
z"/>
<path fill="#414141" opacity="1.000000" stroke="none" 
	d="
M108.151932,164.549988 
	C107.929619,162.635468 107.784767,161.162445 107.621422,159.501404 
	C111.609467,158.041443 113.973877,158.422668 114.217865,163.358215 
	C114.412308,167.291656 115.288353,171.191406 115.861832,175.106110 
	C116.452255,175.077164 117.042679,175.048218 117.633095,175.019272 
	C118.446815,171.089798 119.604309,167.193115 119.983025,163.222153 
	C120.410027,158.745026 122.606445,158.090408 126.768684,159.334793 
	C124.611488,170.020111 122.465508,180.649902 120.296196,191.395264 
	C115.913467,192.679138 113.459572,192.103546 112.721512,186.902908 
	C111.675880,179.535004 109.768486,172.289368 108.151932,164.549988 
z"/>
<path fill="#444444" opacity="1.000000" stroke="none" 
	d="
M173.924042,187.136017 
	C175.563126,187.142746 176.871033,186.822342 177.854279,187.249374 
	C178.805328,187.662460 179.422134,188.845139 180.185760,189.689758 
	C179.317810,190.430923 178.476425,191.773209 177.577469,191.812927 
	C172.766724,192.025604 167.941620,191.913284 162.193176,191.913284 
	C162.193176,187.451035 162.191010,183.211700 162.193710,178.972366 
	C162.197006,173.808884 162.179855,168.645218 162.216980,163.481964 
	C162.253189,158.447220 162.278351,158.447403 168.300125,159.419525 
	C168.300125,168.256180 168.300125,177.193619 168.300125,186.724472 
	C170.330933,186.886658 171.890884,187.011230 173.924042,187.136017 
z"/>
<path fill="#414141" opacity="1.000000" stroke="none" 
	d="
M226.707611,172.006821 
	C226.707138,167.531921 226.707138,163.555893 226.707138,159.191635 
	C228.728531,159.191635 230.415375,159.191635 232.719482,159.191635 
	C232.719482,168.429581 232.719482,177.496597 232.719482,187.152649 
	C236.090607,187.152649 238.897064,186.933731 241.636978,187.265015 
	C242.671082,187.390060 243.551315,188.787628 244.501694,189.605103 
	C243.673798,190.371170 242.872787,191.763046 242.013550,191.799988 
	C237.076584,192.012222 232.125824,191.903305 226.708099,191.903305 
	C226.708099,185.080109 226.708099,178.792892 226.707611,172.006821 
z"/>
<path fill="#3D3D3D" opacity="1.000000" stroke="none" 
	d="
M157.847748,178.985855 
	C157.847992,183.436264 157.847992,187.389557 157.847992,191.612213 
	C155.675522,191.612213 153.953995,191.612213 151.925842,191.612213 
	C151.925842,180.706146 151.925842,170.008636 151.925842,159.080704 
	C153.840057,159.080704 155.435867,159.080704 157.847504,159.080704 
	C157.847504,165.656433 157.847504,172.072586 157.847748,178.985855 
z"/>
<path fill="#323232" opacity="1.000000" stroke="none" 
	d="
M192.020981,129.012268 
	C193.700668,129.676865 195.380341,130.341446 197.486847,131.383347 
	C197.982727,132.513687 198.051819,133.266708 198.120911,134.019745 
	C198.065582,139.705154 198.010254,145.390564 197.693420,151.665207 
	C197.196915,152.471893 197.054138,152.738708 196.584900,153.163452 
	C194.445419,153.198807 192.724655,153.125610 191.002960,152.580505 
	C191.004364,144.401138 191.006714,136.693695 191.262024,128.993744 
	C191.683640,129.004929 191.852310,129.008606 192.020981,129.012268 
z"/>
<path fill="#292929" opacity="1.000000" stroke="none" 
	d="
M191.009064,128.986252 
	C191.006714,136.693695 191.004364,144.401138 190.674286,152.656464 
	C189.904892,153.119675 189.463226,153.035004 189.021561,152.950333 
	C189.034729,144.952484 189.047897,136.954651 189.416565,128.536407 
	C190.184387,128.406082 190.596725,128.696167 191.009064,128.986252 
z"/>
<path fill="#DDDDDD" opacity="1.000000" stroke="none" 
	d="
M189.075272,153.343674 
	C189.463226,153.035004 189.904892,153.119675 190.675232,153.128387 
	C192.724655,153.125610 194.445419,153.198807 196.838287,153.227600 
	C197.673737,153.122375 197.837036,153.061554 198.000336,153.000748 
	C195.325989,156.653366 192.232925,155.260620 189.075272,153.343674 
z"/>
<path fill="#444444" opacity="1.000000" stroke="none" 
	d="
M189.093216,114.321182 
	C192.099060,115.146324 194.998199,116.306633 197.897354,117.466942 
	C197.808411,117.777412 197.719482,118.087875 197.630554,118.398346 
	C195.085114,117.614082 192.539673,116.829826 189.621063,116.031525 
	C189.160767,115.563774 189.073639,115.110054 189.093216,114.321182 
z"/>
<path fill="#4F4F4F" opacity="1.000000" stroke="none" 
	d="
M193.634598,104.051949 
	C192.651718,104.799042 191.278931,105.412285 189.527405,106.024200 
	C190.513992,105.321274 191.879349,104.619682 193.634598,104.051949 
z"/>
<path fill="#DDDDDD" opacity="1.000000" stroke="none" 
	d="
M198.508987,134.038452 
	C198.051819,133.266708 197.982727,132.513687 197.861267,131.384201 
	C198.089218,130.652313 198.369553,130.296875 198.649872,129.941422 
	C199.042633,131.126587 199.435425,132.311752 199.751099,133.770569 
	C199.415024,134.048553 199.156052,134.052856 198.508987,134.038452 
z"/>
<path fill="#444444" opacity="1.000000" stroke="none" 
	d="
M191.262024,128.993744 
	C190.596725,128.696167 190.184387,128.406082 189.506012,128.078094 
	C189.163193,127.577751 189.086411,127.115326 189.135101,126.317490 
	C190.173401,126.753716 191.086227,127.525345 192.010025,128.654633 
	C191.852310,129.008606 191.683640,129.004929 191.262024,128.993744 
z"/>
<path fill="#DDDDDD" opacity="1.000000" stroke="none" 
	d="
M183.863678,120.979149 
	C183.489319,120.272507 183.382767,119.479317 183.431213,118.310104 
	C183.767975,118.920258 183.949722,119.906433 183.863678,120.979149 
z"/>
<path fill="#DDDDDD" opacity="1.000000" stroke="none" 
	d="
M204.202927,118.872360 
	C203.716751,118.517723 203.465622,118.026077 203.266556,117.244987 
	C203.691727,117.548820 204.064850,118.142090 204.202927,118.872360 
z"/>
<path fill="#444444" opacity="1.000000" stroke="none" 
	d="
M197.998016,152.743469 
	C197.837036,153.061554 197.673737,153.122375 197.257019,153.119049 
	C197.054138,152.738708 197.196915,152.471893 197.625031,152.128845 
	C197.877304,152.164246 197.936508,152.325226 197.998016,152.743469 
z"/>
<path fill="#F9F9F9" opacity="1.000000" stroke="none" 
	d="
M107.463364,122.387299 
	C105.630638,128.277420 104.701187,128.723511 96.945282,127.657959 
	C96.945282,122.311432 96.945282,116.919830 96.945282,111.519371 
	C105.778648,109.277100 107.610695,111.087784 107.463364,122.387299 
z"/>
<path fill="#4F4F4F" opacity="1.000000" stroke="none" 
	d="
M112.717552,117.875343 
	C112.243362,117.775742 111.994003,117.638260 111.744644,117.500778 
	C111.993523,117.364029 112.297447,117.069145 112.476952,117.131638 
	C112.688370,117.205246 112.792007,117.588486 112.717552,117.875343 
z"/>
<path fill="#F4F4F4" opacity="1.000000" stroke="none" 
	d="
M174.544479,113.824142 
	C174.777786,123.024689 174.996964,131.805588 174.915039,140.583664 
	C174.883194,143.996811 173.515381,146.910309 169.324219,146.675415 
	C165.316040,146.450775 164.100189,143.775421 164.111008,140.181519 
	C164.134964,132.223328 163.910706,124.254349 164.299347,116.314819 
	C164.389374,114.475555 166.151199,111.945488 167.820740,111.144684 
	C170.091721,110.055374 173.141541,109.973022 174.544479,113.824142 
z"/>
<path fill="#F9F9F9" opacity="1.000000" stroke="none" 
	d="
M141.046326,143.016647 
	C139.799728,146.800980 136.321442,146.600433 133.867523,145.843628 
	C132.442551,145.404175 131.215942,142.265717 131.040390,140.242798 
	C130.627747,135.488205 130.900009,130.674194 131.273697,125.335793 
	C133.230789,125.322800 134.809296,125.858223 137.506195,126.773018 
	C134.581589,122.448494 130.607361,119.340965 131.697647,114.273956 
	C133.767593,109.745560 137.383636,109.315971 140.802048,113.833344 
	C140.326111,121.631653 140.067078,128.751434 140.060104,135.871460 
	C140.057770,138.252853 140.699173,140.634903 141.046326,143.016647 
M135.434250,129.703659 
	C135.705765,129.987946 135.974792,130.274933 136.262741,130.541489 
	C136.270172,130.548370 136.484528,130.331741 136.602371,130.219330 
	C136.330460,129.934967 136.058563,129.650604 135.434250,129.703659 
z"/>
<path fill="#F1F1F1" opacity="1.000000" stroke="none" 
	d="
M141.282959,142.678223 
	C140.699173,140.634903 140.057770,138.252853 140.060104,135.871460 
	C140.067078,128.751434 140.326111,121.631653 140.806091,114.230942 
	C141.256851,123.413338 141.388214,132.876572 141.282959,142.678223 
z"/>
<path fill="#F1F1F1" opacity="1.000000" stroke="none" 
	d="
M131.420990,114.564835 
	C130.607361,119.340965 134.581589,122.448494 137.506195,126.773018 
	C134.809296,125.858223 133.230789,125.322800 131.405640,124.902039 
	C131.154099,121.629715 131.149200,118.242714 131.420990,114.564835 
z"/>
<path fill="#444444" opacity="1.000000" stroke="none" 
	d="
M196.746796,119.024170 
	C197.327087,119.629173 197.543350,120.219452 197.759598,120.809723 
	C196.386856,120.809723 195.014114,120.809723 193.641373,120.809723 
	C193.599060,120.438202 193.556747,120.066689 193.514420,119.695168 
	C194.470535,119.466591 195.426636,119.238014 196.746796,119.024170 
z"/>
<path fill="#444444" opacity="1.000000" stroke="none" 
	d="
M193.535583,126.549248 
	C193.478989,126.583237 193.592194,126.515259 193.535583,126.549248 
z"/>
<path fill="#EDEDED" opacity="1.000000" stroke="none" 
	d="
M213.745575,173.559631 
	C210.115448,173.644135 210.745621,171.274872 210.700180,169.375916 
	C210.657166,167.578644 210.690933,165.779541 210.690933,163.790985 
	C213.843018,163.158737 217.047363,162.100632 217.809692,166.017395 
	C218.378662,168.940689 219.464340,173.060165 213.745575,173.559631 
z"/>
<path fill="#EDEDED" opacity="1.000000" stroke="none" 
	d="
M216.578781,178.049026 
	C219.674957,185.489639 218.115829,188.100174 211.105484,187.371796 
	C211.105484,184.381897 211.105484,181.346100 211.105484,177.873138 
	C212.939728,177.873138 214.552429,177.873138 216.578781,178.049026 
z"/>
<path fill="#F1F1F1" opacity="1.000000" stroke="none" 
	d="
M135.610458,129.534943 
	C136.058563,129.650604 136.330460,129.934967 136.602371,130.219330 
	C136.484528,130.331741 136.270172,130.548370 136.262741,130.541489 
	C135.974792,130.274933 135.705765,129.987946 135.610458,129.534943 
z"/>
</svg>