<?xml version="1.0" encoding="iso-8859-1"?>
<!-- Uploaded to: SVG Repo, www.svgrepo.com, Generator: SVG Repo Mixer Tools -->
<!DOCTYPE svg PUBLIC "-//W3C//DTD SVG 1.1//EN" "http://www.w3.org/Graphics/SVG/1.1/DTD/svg11.dtd">
<svg fill="#545c69de" version="1.1" id="Capa_1" xmlns="http://www.w3.org/2000/svg" xmlns:xlink="http://www.w3.org/1999/xlink" 
	 width="800px" height="800px" viewBox="0 0 980.738 980.738"
	 xml:space="preserve">
<g>
	<g>
		<path d="M970.738,928.719c5.522,0,10-4.477,10-10v-25.748c0-5.521-4.478-10-10-10h-31.5V421.457c0-5.523-4.478-10-10-10h-376.91
			c-5.523,0-10,4.477-10,10v461.514h-26.354v-89.066c0-5.523-4.477-10-10-10H134.477c-5.523,0-10-4.477-10-10v-82.213
			c0-5.523,4.477-10,10-10h371.498c5.523,0,10-4.479,10-10v-4.342c0-5.523-4.477-10-10-10H134.477c-5.523,0-10-4.479-10-10v-78.564
			c0-5.523,4.477-10,10-10h371.498c5.523,0,10-4.477,10-10v-4.342c0-5.523-4.477-10-10-10H134.477c-5.523,0-10-4.479-10-10v-78.565
			c0-5.522,4.477-10,10-10h371.498c5.523,0,10-4.477,10-10v-4.342c0-5.523-4.477-10-10-10H134.477c-5.523,0-10-4.477-10-10v-78.564
			c0-5.523,4.477-10,10-10h371.498c5.523,0,10-4.477,10-10v-4.342c0-5.523-4.477-10-10-10H134.477c-5.523,0-10-4.477-10-10v-78.563
			c0-5.523,4.477-10,10-10h371.498c5.523,0,10-4.478,10-10V62.02c0-5.523-4.477-10-10-10H48.238c-5.523,0-10,4.477-10,10v820.951H10
			c-5.523,0-10,4.477-10,10v25.746c0,5.523,4.477,10,10,10h960.738V928.719z M812.738,477.795c0-5.522,4.477-10,10-10h64.091
			c5.522,0,10,4.478,10,10v64.091c0,5.523-4.478,10-10,10h-64.091c-5.523,0-10-4.477-10-10V477.795z M812.738,589.795
			c0-5.521,4.477-10,10-10h64.091c5.522,0,10,4.479,10,10v64.092c0,5.523-4.478,10-10,10h-64.091c-5.523,0-10-4.477-10-10V589.795z
			 M812.738,701.795c0-5.521,4.477-10,10-10h64.091c5.522,0,10,4.479,10,10v64.092c0,5.523-4.478,10-10,10h-64.091
			c-5.523,0-10-4.477-10-10V701.795z M698.738,477.795c0-5.522,4.477-10,10-10h64.091c5.522,0,10,4.478,10,10v64.091
			c0,5.523-4.478,10-10,10h-64.091c-5.523,0-10-4.477-10-10V477.795z M698.738,589.795c0-5.521,4.477-10,10-10h64.091
			c5.522,0,10,4.479,10,10v64.092c0,5.523-4.478,10-10,10h-64.091c-5.523,0-10-4.477-10-10V589.795z M698.738,701.795
			c0-5.521,4.477-10,10-10h64.091c5.522,0,10,4.479,10,10v64.092c0,5.523-4.478,10-10,10h-64.091c-5.523,0-10-4.477-10-10V701.795z
			 M584.738,477.795c0-5.522,4.477-10,10-10h64.091c5.522,0,10,4.478,10,10v64.091c0,5.523-4.478,10-10,10h-64.091
			c-5.523,0-10-4.477-10-10V477.795z M584.738,589.795c0-5.521,4.477-10,10-10h64.091c5.522,0,10,4.479,10,10v64.092
			c0,5.523-4.478,10-10,10h-64.091c-5.523,0-10-4.477-10-10V589.795z M584.738,701.795c0-5.521,4.477-10,10-10h64.091
			c5.522,0,10,4.479,10,10v64.092c0,5.523-4.478,10-10,10h-64.091c-5.523,0-10-4.477-10-10V701.795z"/>
		<path d="M590.116,305.844c-5.523,0-10,4.477-10,10v61.996c0,5.523,4.477,10,10,10H891.45c5.522,0,10-4.477,10-10v-61.996
			c0-5.523-4.478-10-10-10H590.116z M648.495,352.887c0,5.523-4.478,10-10,10h-12.091c-5.523,0-10-4.477-10-10v-12.091
			c0-5.523,4.477-10,10-10h12.091c5.522,0,10,4.477,10,10V352.887z M755.162,352.887c0,5.523-4.478,10-10,10h-12.091
			c-5.523,0-10-4.477-10-10v-12.091c0-5.523,4.477-10,10-10h12.091c5.522,0,10,4.477,10,10V352.887z M865.162,352.887
			c0,5.523-4.478,10-10,10h-12.091c-5.523,0-10-4.477-10-10v-12.091c0-5.523,4.477-10,10-10h12.091c5.522,0,10,4.477,10,10V352.887z
			"/>
	</g>
</g>
</svg>